<svg width="256" height="229" xmlns="http://www.w3.org/2000/svg">
 <g id="Layer_1">
  <title>Layer 1</title>
  <g id="svg_8">
   <path id="svg_9" fill="#37C4B3" d="m128.0003,229.046c-3.758,0 -7.325,-1.695 -9.719,-4.623l-115.126,-140.691c-3.529,-4.312 -3.855,-10.443 -0.805,-15.111l41.087,-62.902c2.331,-3.57 6.288,-5.719 10.523,-5.719l148.081,0c4.236,0 8.19,2.149 10.526,5.719l41.083,62.902c3.051,4.669 2.724,10.799 -0.805,15.111l-115.126,140.69c-2.394,2.929 -5.96,4.624 -9.719,4.624z"/>
   <g id="svg_12">
    <path id="svg_10" fill="#53E7D3" d="m48.2333,1.406c-1.911,0.983 -3.578,2.447 -4.795,4.312l-41.089,62.904c-1.555,2.381 -2.229,5.145 -2.049,7.856l96.97,0l-49.037,-75.072z"/>
    <path id="svg_11" fill="#53E7D3" d="m158.7283,76.476l96.973,0c0.179,-2.71 -0.492,-5.473 -2.05,-7.856l-41.088,-62.902c-1.217,-1.865 -2.882,-3.328 -4.795,-4.312l-49.04,75.07z"/>
   </g>
   <polygon id="svg_13" fill="#53E7D3" points="128.00031042099,229.072021484375 178.02731847763062,76.47599792480469 78.28329992294312,76.47599792480469 "/>
   <polygon id="svg_14" fill="#B9F5ED" points="127.92731237411499,0 77.97330236434937,76.47599792480469 178.02731847763062,76.47599792480469 128.07230138778687,0 "/>
   <path id="svg_15" opacity="0.1" d="m36.7263,83.732c-3.529,-4.312 -3.856,-10.443 -0.807,-15.111l41.089,-62.902c2.331,-3.57 6.289,-5.719 10.523,-5.719l-33.572,0c-4.235,0 -8.192,2.149 -10.523,5.719l-41.087,62.902c-3.05,4.669 -2.724,10.799 0.805,15.111l115.127,140.691c2.394,2.928 -81.555,-140.691 -81.555,-140.691z"/>
  </g>
 </g>
</svg>